<svg width="174" height="26" viewBox="0 0 174 26" fill="none" xmlns="http://www.w3.org/2000/svg">
  <path d="M20.1369 26C22.8983 26 25.1842 23.7425 24.6732 21.0288C24.3528 19.3274 23.8679 17.6594 23.2235 16.0502C21.9602 12.8958 20.1087 10.0295 17.7745 7.61522C15.4403 5.2009 12.6692 3.28575 9.61949 1.97913C8.11383 1.33406 6.55481 0.843538 4.96489 0.512196C2.26154 -0.0511821 0 2.23858 0 5V21C0 23.7614 2.23858 26 5 26H20.1369Z" fill="#615DFF"/>
  <g style="mix-blend-mode:multiply">
    <path d="M8.1369 26C5.3755 26 3.08955 23.7425 3.60062 21.0288C3.92104 19.3274 4.40591 17.6594 5.05027 16.0502C6.31357 12.8958 8.16508 10.0295 10.4993 7.61522C12.8335 5.2009 15.6046 3.28575 18.6543 1.97913C20.16 1.33406 21.719 0.843538 23.3089 0.512196C26.0123 -0.0511821 28.2738 2.23858 28.2738 5V21C28.2738 23.7614 26.0352 26 23.2738 26H8.1369Z" fill="#3DD9EB"/>
  </g>
</svg>